<?xml version="1.0" encoding="UTF-8"?>
<svg xmlns="http://www.w3.org/2000/svg" viewBox="0 0 570 387.32">
  <defs>
    <style>
      .cls-1 {
        fill: #294fa1;
      }

      .cls-2 {
        fill: #fff;
      }
    </style>
  </defs>
  <g id="contents">
    <g>
      <path class="cls-1" d="M542.6,200.5c0-7.84-6.35-14.19-14.19-14.19s-14.19,6.35-14.19,14.19v28.05h28.38v-28.05Z"/>
      <path class="cls-1" d="M514.22,314.34c0,7.84,6.35,14.19,14.19,14.19s14.19-6.35,14.19-14.19v-28.05h-28.38v28.05Z"/>
      <path class="cls-1" d="M555.81,243.23h-72.79v-39.48c0-5.2-4.16-8.59-9.25-7.55l-33.78,6.91,19.6-63.43c2.07-6.68-1.97-12.15-8.97-12.15h-26.42c-7,0-15.61,4.94-19.15,10.98l-27.12,46.32c-19.74-9.47-42.87-17.46-67.99-23.52l-8.98-39.5c-1.43-6.3-7.89-11.45-14.34-11.45h-25.34v-43c0-32.37-25.71-58.71-57.31-58.71h-10.88v46.97h10.88c5.6,0,10.34,5.38,10.34,11.74v43h-31.24c-6.46,0-15.26,3.95-19.55,8.77l-30.81,34.6C49.63,168,0,209.03,0,257.42c0,60.26,76.94,109.11,199.62,109.11,65.92,0,131.62-14.11,178.31-36.51l27.12,46.32c3.53,6.04,12.15,10.98,19.15,10.98h26.42c7,0,11.03-5.47,8.97-12.15l-19.6-63.43,33.78,6.91c5.09,1.04,9.25-2.36,9.25-7.55v-39.48h72.79c7.84,0,14.19-6.35,14.19-14.19s-6.35-14.19-14.19-14.19ZM90.03,287.63c-16.66,0-30.21-13.55-30.21-30.21s13.55-30.21,30.21-30.21,30.21,13.55,30.21,30.21-13.55,30.21-30.21,30.21ZM187.88,287.63c-16.66,0-30.21-13.55-30.21-30.21s13.55-30.21,30.21-30.21,30.21,13.55,30.21,30.21-13.55,30.21-30.21,30.21ZM285.73,287.63c-16.66,0-30.21-13.55-30.21-30.21s13.55-30.21,30.21-30.21,30.21,13.55,30.21,30.21-13.55,30.21-30.21,30.21Z"/>
      <rect class="cls-1" x="140.22" width="38.2" height="64.35" rx="6.85" ry="6.85"/>
    </g>
    <ellipse class="cls-1" cx="185.91" cy="257.42" rx="144.68" ry="44.74"/>
  </g>
  <g id="_レイヤー_4" data-name="レイヤー 4">
    <g>
      <path class="cls-2" d="M55.16,260.85c2.88,2.72,7.23,5.29,11.9,5.29,2.72,0,4.35-.86,5.21-1.79.78-.78,1.32-1.94,1.32-3.27,0-1.01-.39-2.18-1.48-3.11-1.32-1.17-3.34-1.71-6.69-2.72l-3.5-1.09c-2.18-.7-5.37-1.87-7.46-4.2-2.64-2.88-2.95-6.53-2.95-9.18,0-6.38,2.49-10.26,4.74-12.52,2.64-2.64,7-4.9,13.3-4.9,5.13,0,11.12,1.63,16.02,4.2l-5.37,10.5c-4.04-3.19-7.08-3.5-8.86-3.5-1.32,0-3.11.31-4.43,1.55-.78.78-1.32,1.63-1.32,2.8,0,.93.16,1.63.7,2.33.39.47,1.32,1.4,4.51,2.33l4.12,1.24c3.27,1.01,6.69,2.18,9.41,5.13,2.64,2.8,3.34,5.68,3.34,9.25,0,4.74-1.17,9.33-4.9,13.06-4.43,4.43-9.8,5.29-15.32,5.29-3.27,0-6.38-.31-10.19-1.71-.85-.31-4.12-1.56-7.85-4.12l5.75-10.89Z"/>
      <path class="cls-2" d="M107.41,241.64v19.44c0,1.4.23,3.58,1.87,5.05,1.24,1.09,2.88,1.32,4.35,1.32,1.56,0,3.03-.16,4.43-1.48,1.56-1.55,1.79-3.34,1.79-4.9v-19.44h12.44v21.69c0,2.96-.23,6.14-3.34,9.33-4.28,4.43-10.26,4.9-15.01,4.9-5.21,0-11.59-.54-15.71-4.98-2.64-2.8-3.27-5.91-3.27-9.25v-21.69h12.44Z"/>
      <path class="cls-2" d="M153.29,219.71v25.27c2.25-2.41,5.6-4.51,10.34-4.51,4.28,0,8.86,1.4,12.29,4.67,3.19,3.03,5.68,7.85,5.68,13.76,0,5.52-2.1,10.42-5.6,13.84-3.27,3.19-7.23,4.82-12.21,4.82-2.41,0-7-.47-10.5-4.98v3.81h-12.44v-56.69h12.44ZM166.43,264.66c1.63-1.63,2.41-3.66,2.41-5.44,0-2.33-1.01-4.51-2.41-5.91-1.09-1.09-2.88-2.25-5.52-2.25-2.33,0-4.28.86-5.68,2.33-1.24,1.32-2.33,3.65-2.33,5.6,0,2.1,1.01,4.43,2.64,5.91,1.32,1.17,3.34,2.1,5.37,2.1,1.79,0,3.81-.62,5.52-2.33Z"/>
      <path class="cls-2" d="M188.74,241.64h12.44v4.2c2.95-3.58,7-4.82,10.42-4.82,2.49,0,4.82.54,6.69,1.55,2.57,1.32,3.97,3.27,4.82,4.98,1.4-2.49,3.19-3.97,4.74-4.82,2.49-1.4,4.9-1.71,7.23-1.71,2.57,0,6.76.39,9.64,3.19,3.11,3.03,3.27,7.15,3.27,9.56v22.63h-12.44v-17.18c0-3.66-.39-6.14-1.79-7.46-.7-.62-1.63-1.17-3.27-1.17-1.4,0-2.57.39-3.65,1.4-2.1,2.02-2.25,4.9-2.25,6.61v17.81h-12.44v-17.18c0-3.34-.23-5.99-1.63-7.46-1.09-1.17-2.49-1.4-3.73-1.4-1.32,0-2.41.23-3.42,1.24-2.18,2.1-2.18,5.44-2.18,7.62v17.18h-12.44v-34.76Z"/>
      <path class="cls-2" d="M283.53,241.64h12.44v34.76h-12.44v-3.81c-2.88,3.97-7.39,4.98-10.81,4.98-3.73,0-8.32-1.09-12.52-5.52-3.34-3.58-4.98-7.54-4.98-12.75,0-6.53,2.57-11.12,5.37-13.92,2.96-2.96,7.54-4.9,12.52-4.9,5.6,0,8.94,2.88,10.42,4.51v-3.34ZM270.46,253.3c-1.71,1.63-2.49,3.89-2.49,5.68,0,2.02.86,4.2,2.41,5.68,1.32,1.24,3.5,2.33,5.6,2.33s4.04-.85,5.6-2.41c1.09-1.09,2.33-2.8,2.33-5.6,0-1.63-.47-3.81-2.41-5.68-1.17-1.09-2.95-2.25-5.6-2.25-1.55,0-3.65.54-5.44,2.25Z"/>
      <path class="cls-2" d="M304.52,241.64h12.44v5.68c1.24-2.33,3.03-3.89,4.9-4.82,1.87-1.01,4.12-1.4,6.45-1.4.31,0,.85.08,2.49.16v11.74c-.62-.31-2.33-1.24-5.37-1.24-1.63,0-3.89.23-5.68,1.87-2.64,2.41-2.8,6.07-2.8,7.93v14.85h-12.44v-34.76Z"/>
      <path class="cls-2" d="M342.54,220.18c3.89,0,7,3.11,7,7s-3.11,7-7,7-7-3.11-7-7,3.11-7,7-7ZM348.76,241.64v34.76h-12.44v-34.76h12.44Z"/>
      <path class="cls-2" d="M357.23,241.64h12.44v4.35c3.42-4.51,8.01-5.13,11.04-5.13,3.58,0,7.39.86,10.26,3.73,2.95,2.96,3.27,5.91,3.27,9.72v22.08h-12.44v-17.57c0-2.02.08-5.05-1.56-6.77-1.17-1.24-2.72-1.48-3.97-1.48-1.94,0-3.58.7-4.59,1.63-1.24,1.17-2.02,3.42-2.02,5.52v18.66h-12.44v-34.76Z"/>
      <path class="cls-2" d="M439.58,261.31h-25.89c0,1.87.7,4.35,2.18,5.83.78.78,2.33,1.71,5.13,1.71.31,0,2.49-.08,4.04-.93.78-.47,1.63-1.24,2.18-2.33h11.9c-.54,1.94-1.63,4.67-4.2,7.15s-6.61,4.82-14.15,4.82c-4.59,0-10.11-1.01-14.38-5.29-2.25-2.25-5.13-6.53-5.13-13.14,0-5.83,2.18-10.5,5.21-13.45,2.88-2.8,7.39-5.05,14.23-5.05,4.04,0,9.25.86,13.37,4.74,4.9,4.67,5.52,10.73,5.52,14.62v1.32ZM428.15,254.16c-.31-1.32-1.09-2.8-2.02-3.73-1.63-1.63-3.89-1.87-5.13-1.87-2.1,0-3.73.54-5.05,1.87-.86.93-1.63,2.18-1.87,3.73h14.07Z"/>
    </g>
    <rect class="cls-2" x="267.97" y="249.49" width="17.76" height="17.76"/>
    <circle class="cls-2" cx="161.6" cy="258.17" r="11.17"/>
  </g>
</svg>